<svg height="64" viewBox="0 0 25.6 25.599998" width="64" xmlns="http://www.w3.org/2000/svg" xmlns:xlink="http://www.w3.org/1999/xlink"><clipPath id="a"><path d="m0 340.15625h481.89062v-340.15625h-481.89062zm0 0"/></clipPath><g clip-path="url(#a)" transform="matrix(.05314904 0 0 .05314904 0 3.468311)"><path d="m0 340.15625 113.38672-170.07813-113.38672-170.07812h85.039062l113.386718 170.07812-113.386718 170.07813zm0 0" fill="#666"/><path d="m113.38672 340.15625 113.38672-170.07813-113.38672-170.07812h85.03906l226.76953 340.15625h-85.03906l-70.86328-106.29688-70.86719 106.29688zm0 0" fill="#999"/><g fill="#666"><path d="m387.40234 240.94531-37.79297-56.6914 132.28125-.004v56.69531h-94.48828zm0 0"/><path d="m330.71094 155.90625-37.79688-56.691406 188.97656-.0039v56.695316h-151.17968zm0 0"/></g></g></svg>